<?xml version="1.0" standalone="no"?><!DOCTYPE svg PUBLIC "-//W3C//DTD SVG 1.1//EN" "http://www.w3.org/Graphics/SVG/1.1/DTD/svg11.dtd"><svg t="1606266996441" class="icon" viewBox="0 0 1024 1024" version="1.1" xmlns="http://www.w3.org/2000/svg" p-id="15064" xmlns:xlink="http://www.w3.org/1999/xlink" width="200" height="200"><defs><style type="text/css"></style></defs><path d="M462.433443 313.170517L214.037404 562.693069a219.669967 219.669967 0 0 0 310.917491 309.790979l310.354236-309.790979a43.990319 43.990319 0 0 1 62.521452 61.958196l-310.917492 309.790979A307.537954 307.537954 0 0 1 152.079208 499.608361l434.833883-434.833884a219.669967 219.669967 0 0 1 310.354236 310.354236l-248.39604 248.959296-185.874587 185.874587a131.80198 131.80198 0 0 1-186.437844-186.437844l434.270627-434.270627a43.933993 43.933993 0 0 1 61.958196 61.958196l-434.270627 434.270627a43.933993 43.933993 0 1 0 60.831683 62.521452l187.564356-185.311331 248.39604-248.396039a132.365237 132.365237 0 0 0-92.937294-225.302531 132.928493 132.928493 0 0 0-93.50055 38.864687z" fill="#016DFB" p-id="15065"></path></svg>