<?xml version="1.0" standalone="no"?><!DOCTYPE svg PUBLIC "-//W3C//DTD SVG 1.1//EN" "http://www.w3.org/Graphics/SVG/1.1/DTD/svg11.dtd"><svg t="1606204853072" class="icon" viewBox="0 0 1024 1024" version="1.1" xmlns="http://www.w3.org/2000/svg" p-id="3396" xmlns:xlink="http://www.w3.org/1999/xlink" width="200" height="200"><defs><style type="text/css"></style></defs><path d="M819.2 721.92c-40.96 0-71.68 15.36-102.4 40.96l-368.64-215.04c5.12-10.24 10.24-20.48 10.24-35.84 0-10.24 0-25.6-5.12-35.84L716.8 266.24c25.6 25.6 61.44 40.96 102.4 40.96 87.04 0 153.6-66.56 153.6-153.6s-66.56-153.6-153.6-153.6-153.6 66.56-153.6 153.6c0 10.24 0 25.6 5.12 35.84L307.2 399.36C281.6 373.76 245.76 358.4 204.8 358.4c-87.04 0-153.6 66.56-153.6 153.6s66.56 153.6 153.6 153.6c40.96 0 76.8-15.36 102.4-40.96l363.52 215.04c-5.12 10.24-5.12 20.48-5.12 35.84 0 81.92 66.56 148.48 148.48 148.48 81.92 0 148.48-66.56 148.48-148.48 10.24-81.92-61.44-153.6-143.36-153.6z m0 0" p-id="3397"></path></svg>