<?xml version="1.0" standalone="no"?><!DOCTYPE svg PUBLIC "-//W3C//DTD SVG 1.1//EN" "http://www.w3.org/Graphics/SVG/1.1/DTD/svg11.dtd"><svg t="1606266762025" class="icon" viewBox="0 0 1024 1024" version="1.1" xmlns="http://www.w3.org/2000/svg" p-id="7063" xmlns:xlink="http://www.w3.org/1999/xlink" width="200" height="200"><defs><style type="text/css"></style></defs><path d="M743.416465 440.95258a25.884142 25.884142 0 0 0-25.542814 26.168584c0 32.653841-6.143928 65.819677-18.88689 95.685994l-0.625771 1.251541a241.092298 241.092298 0 0 1-54.15759 80.383063 245.586468 245.586468 0 0 1-81.236386 54.214478 240.637193 240.637193 0 0 1-95.856659 19.171332 25.770366 25.770366 0 0 0 0 51.483844c38.968434 0 78.505751-7.67991 115.653762-22.925955a295.477442 295.477442 0 0 0 97.961523-65.762788 298.321853 298.321853 0 0 0 64.795689-96.539318l0.62577-1.763535a295.989436 295.989436 0 0 0 23.153508-115.198656 25.770366 25.770366 0 0 0-25.884142-26.168584M349.63617 188.823966c-18.545561 7.338581-35.89647 16.440697-51.085626 27.078795-16.497585 11.263869-31.686741 22.812178-45.055475 36.806682a326.822854 326.822854 0 0 0-37.148011 45.112362v0.625771a246.212239 246.212239 0 0 0-27.363236 51.199403c-6.08704 12.458521 0 27.363236 13.368733 33.165835a25.144596 25.144596 0 0 0 33.165835-13.710062c6.371481-14.904715 13.994503-29.240548 23.437949-42.666169a263.392483 263.392483 0 0 1 30.4352-37.148011c11.54831-10.922539 24.34816-21.901967 37.773782-31.004083 13.311845-8.874563 27.932119-16.497585 41.926622-22.584625a25.827254 25.827254 0 0 0 13.425621-34.132936c-4.892387-12.742962-20.081543-18.886891-32.881394-12.742962m387.067484 548.174938l-0.568882 0.568882a395.942047 395.942047 0 0 1-122.992343 81.919044 382.459538 382.459538 0 0 1-146.032074 29.297436 380.752891 380.752891 0 0 1-146.088962-29.297436 395.430053 395.430053 0 0 1-123.845667-82.487926 381.776879 381.776879 0 0 1-82.487926-124.300772l-1.194653-2.104864a371.935216 371.935216 0 0 1-27.989007-143.472104c0-52.337167 10.353657-101.659258 29.18366-146.145851a380.866668 380.866668 0 0 1 82.487926-124.243884 381.549326 381.549326 0 0 1 269.934629-111.500921 388.546578 388.546578 0 0 1 146.032074 28.671665c46.307015 19.171332 88.290525 47.786109 123.561225 82.829256l2.161753 2.161753a375.291622 375.291622 0 0 1 80.610615 122.082131l0.9671 1.820423c17.919791 44.486592 27.647677 93.239801 27.647677 144.325428 0 51.199403-9.727887 100.578382-28.614777 145.633856a372.845428 372.845428 0 0 1-82.772368 124.243884m274.485687 213.78595l-185.28495-185.171173a478.145533 478.145533 0 0 0 72.703152-120.034155c22.527737-54.783361 35.2707-115.71065 35.2707-178.458362a466.483447 466.483447 0 0 0-34.360488-176.581051l-0.910212-2.844412a467.96254 467.96254 0 0 0-99.213065-148.819597l-2.104864-2.446193A480.022844 480.022844 0 0 0 646.023823 34.656876h-0.568882A459.144866 459.144866 0 0 0 467.110355 0.011947 465.231906 465.231906 0 0 0 35.613167 288.37836 460.055077 460.055077 0 0 0 0.001138 467.064275c0 62.121942 12.458521 121.570137 34.360488 176.069057l1.251541 2.446194c23.437949 56.888225 58.424207 108.65651 101.033488 151.664008h0.568882a471.774052 471.774052 0 0 0 151.550232 101.716147 468.872752 468.872752 0 0 0 357.258054 0 487.361425 487.361425 0 0 0 119.294608-72.475599l185.341838 185.171173c16.725138 16.497585 43.803933 16.497585 60.529072-0.341329 17.066468-16.725138 17.066468-43.803933 0-60.58596" fill="#1296db" p-id="7064"></path></svg>